<svg width="80" height="60" viewBox="0 0 80 60" fill="none" xmlns="http://www.w3.org/2000/svg">
<path d="M54.8135 28.7977L79.8579 59.0955C80.0872 59.3767 80.039 59.5172 79.7134 59.5172C73.6163 59.4891 67.7319 59.4811 62.0602 59.4931C61.0534 59.4992 59.9271 59.8365 59.1296 58.8666C54.3716 53.091 49.6502 47.3736 44.9652 41.7145C44.8789 41.6101 44.7908 41.6101 44.7011 41.7145L31.2494 59.5361C31.1278 59.6832 30.9829 59.7999 30.823 59.8795C30.6631 59.9591 30.4913 60 30.3174 60L0.468485 59.994C0.15948 59.994 0.00498122 59.8072 0.00498122 59.4337L0 0.0843444C0 0.0281146 0.0249167 3.1765e-08 0.0747563 3.1765e-08L38.4961 0.00602134C38.5309 0.00540848 38.5652 0.0174421 38.5943 0.040568C38.6235 0.063694 38.6462 0.0968507 38.6596 0.13576C38.673 0.174669 38.6765 0.217545 38.6695 0.258852C38.6626 0.30016 38.6456 0.338007 38.6207 0.367502L27.0679 14.3506C26.943 14.5016 26.7942 14.6214 26.63 14.7031C26.4658 14.7847 26.2894 14.8267 26.1109 14.8266L14.6777 14.8085C14.6341 14.8085 14.5923 14.8295 14.5614 14.8667C14.5306 14.904 14.5133 14.9546 14.5133 15.0073V41.9434C14.5133 41.9834 14.5269 42.0217 14.5512 42.0499C14.5755 42.0782 14.6085 42.094 14.6429 42.094L24.6207 42.1061C24.8156 42.1063 25.0035 42.0133 25.1441 41.847L59.1795 0.602462C59.3358 0.411549 59.522 0.260003 59.7273 0.156591C59.9326 0.0531785 60.153 -4.74686e-05 60.3756 3.1765e-08L77.9291 0.00602134C77.9598 0.00582987 77.9898 0.0166857 78.0154 0.0371943C78.0409 0.0577028 78.0609 0.0869346 78.0726 0.12118C78.0844 0.155426 78.0874 0.193135 78.0814 0.22949C78.0754 0.265846 78.0605 0.299203 78.0388 0.325326L54.8135 28.4362C54.7139 28.5567 54.7139 28.6772 54.8135 28.7977Z" fill="#00DF78"/>
</svg>
